<?xml version="1.0" encoding="utf-8"?><svg xmlns="http://www.w3.org/2000/svg" xmlns:xlink="http://www.w3.org/1999/xlink"><symbol fill="none" viewBox="0 0 26 14" id="arrow-down" xmlns="http://www.w3.org/2000/svg"><path d="M12.993 13.572a.565.565 0 01-.4-.165L.16.973a.565.565 0 01.799-.8l12.035 12.035L25.027.173a.565.565 0 11.8.799L13.392 13.406a.566.566 0 01-.399.166z" fill="#000"/></symbol><symbol fill="none" viewBox="0 0 12 10" id="arrow-long" xmlns="http://www.w3.org/2000/svg"><path d="M7.116.75l-.466.527 4.096 3.62H0v.704h10.746L6.65 9.22l.466.527L12 5.431v-.364L7.116.75z" fill="#000"/></symbol><symbol fill="none" viewBox="0 0 22 17" id="arrow-long-white" xmlns="http://www.w3.org/2000/svg"><path d="M13.046 0l-.854.966 7.51 6.638H0v1.29h19.702l-7.51 6.637.854.966L22 8.582v-.667L13.046 0z" fill="#fff"/></symbol></svg>